<svg xmlns="http://www.w3.org/2000/svg" version="1.1" xmlns:xlink="http://www.w3.org/1999/xlink" xmlns:svgjs="http://svgjs.dev/svgjs" width="1000" height="1000" viewBox="0 0 1000 1000"><rect width="1000" height="1000" fill="#000000"></rect><g transform="matrix(0.7,0,0,0.7,149.57575757575756,334.1488130587876)"><svg viewBox="0 0 396 188" data-background-color="#000000" preserveAspectRatio="xMidYMid meet" height="474" width="1000" xmlns="http://www.w3.org/2000/svg" xmlns:xlink="http://www.w3.org/1999/xlink"><defs></defs><g id="tight-bounds" transform="matrix(1,0,0,1,0.2400000000000091,-0.027657790994751963)"><svg viewBox="0 0 395.52 188.0553155819895" height="188.0553155819895" width="395.52"><g><svg viewBox="0 0 395.52 188.0553155819895" height="188.0553155819895" width="395.52"><g><svg viewBox="0 0 395.52 188.0553155819895" height="188.0553155819895" width="395.52"><g><svg viewBox="0 0 395.52 188.0553155819895" height="188.0553155819895" width="395.52"><g><rect width="395.52" height="134.26100691099475" fill="none" stroke-width="9.018103199999999" stroke="#ffffff" data-fill-palette-color="none" data-stroke-palette-color="tertiary"></rect><rect width="395.52" height="53.79430867099476" y="134.26100691099475" fill="#ffffff" data-fill-palette-color="tertiary"></rect></g><g><svg viewBox="0 0 395.52 134.26100691099475" height="134.26100691099475" width="395.52"><g transform="matrix(1,0,0,1,23.607599999999998,23.607599999999998)"><svg width="348.3048" viewBox="1.399999976158142 -35.150001525878906 143.24000549316406 35.80000305175781" height="87.04580691099476" data-palette-color="#ffffff"><path d="M8.25-34.5L13.25-34.5 13.25-7.15Q13.25-3.4 11.45-1.48 9.65 0.45 6.35 0.45L6.35 0.45Q5.65 0.45 4.7 0.38 3.75 0.3 2.88 0.15 2 0 1.4-0.25L1.4-0.25 1.95-3.7 4.45-3.7Q8.25-3.7 8.25-7.3L8.25-7.3 8.25-34.5ZM30.45-34.5L35.55-34.5Q36.2-34.5 36.7-34.13 37.2-33.75 37.4-33.15L37.4-33.15 48.3 0 43.1 0 34.5-27.75Q34.3-28.5 34.1-29.25 33.9-30 33.7-30.65L33.7-30.65 32.3-30.65Q32.1-30 31.9-29.25 31.7-28.5 31.45-27.75L31.45-27.75 22.85 0 17.7 0 28.6-33.15Q28.8-33.75 29.3-34.13 29.8-34.5 30.45-34.5L30.45-34.5ZM24.15-14.65L41.75-14.65 41.75-10.5 24.15-10.5 24.15-14.65ZM65.05-34.95L65.05-34.95Q69.15-34.95 71.67-34.08 74.2-33.2 75.35-31.03 76.5-28.85 76.5-24.95L76.5-24.95Q76.5-22.2 75.85-20.35 75.2-18.5 73.82-17.45 72.45-16.4 70.1-16.1L70.1-16.1 70.1-15.85Q70.95-15.65 71.8-15.05 72.65-14.45 73.4-13.43 74.15-12.4 74.5-10.85L74.5-10.85 77.75 0 72.45 0 69.45-10.75Q68.85-12.65 67.8-13.45 66.75-14.25 65.05-14.25L65.05-14.25Q61.9-14.25 59.65-14.28 57.4-14.3 55.87-14.35 54.35-14.4 53.4-14.4L53.4-14.4 53.55-18.4 64.95-18.4Q67.4-18.45 68.8-18.98 70.2-19.5 70.82-20.85 71.45-22.2 71.45-24.65L71.45-24.65Q71.45-27.1 70.82-28.43 70.2-29.75 68.8-30.28 67.4-30.8 64.95-30.8L64.95-30.8Q60.75-30.8 57.7-30.75 54.65-30.7 53.6-30.7L53.6-30.7 52.9-34.5Q54.8-34.7 56.5-34.8 58.2-34.9 60.22-34.93 62.25-34.95 65.05-34.95ZM52.9-34.5L57.85-34.5 57.85 0 52.9 0 52.9-34.5ZM96.64-35.15L96.64-35.15Q100.44-35.15 103.12-34.25 105.79-33.35 107.39-31.3 108.99-29.25 109.72-25.8 110.44-22.35 110.44-17.25L110.44-17.25Q110.44-12.2 109.72-8.72 108.99-5.25 107.39-3.2 105.79-1.15 103.12-0.25 100.44 0.65 96.64 0.65L96.64 0.65Q92.84 0.65 90.17-0.25 87.49-1.15 85.87-3.2 84.24-5.25 83.49-8.72 82.74-12.2 82.74-17.25L82.74-17.25Q82.74-22.35 83.49-25.8 84.24-29.25 85.87-31.3 87.49-33.35 90.17-34.25 92.84-35.15 96.64-35.15ZM96.64-30.8L96.64-30.8Q93.39-30.8 91.49-29.55 89.59-28.3 88.82-25.38 88.04-22.45 88.04-17.25L88.04-17.25Q88.04-12.1 88.82-9.15 89.59-6.2 91.49-4.95 93.39-3.7 96.64-3.7L96.64-3.7Q99.89-3.7 101.77-4.95 103.64-6.2 104.44-9.15 105.24-12.1 105.24-17.25L105.24-17.25Q105.24-22.45 104.44-25.38 103.64-28.3 101.77-29.55 99.89-30.8 96.64-30.8ZM139.79-34.5L144.64-34.5 144.64-1.95Q144.64 0 142.79 0L142.79 0 138.49 0Q137.64 0 137.17-0.4 136.69-0.8 136.34-1.55L136.34-1.55 125.04-24.85Q124.59-25.85 123.99-27.13 123.39-28.4 123.09-29.5L123.09-29.5 122.34-29.5Q122.44-28.35 122.49-27.18 122.54-26 122.54-24.8L122.54-24.8 122.54 0 117.64 0 117.64-32.55Q117.64-34.5 119.54-34.5L119.54-34.5 123.69-34.5Q124.54-34.5 125.04-34.1 125.54-33.7 125.89-32.95L125.89-32.95 136.79-10.25Q137.34-9.2 137.97-7.85 138.59-6.5 139.19-5.2L139.19-5.2 139.99-5.2Q139.89-6.55 139.84-7.88 139.79-9.2 139.79-10.5L139.79-10.5 139.79-34.5Z" opacity="1" transform="matrix(1,0,0,1,0,0)" fill="#ffffff" class="undefined-text-0" data-fill-palette-color="primary" id="text-0"></path></svg></g></svg></g></svg></g></svg></g></svg></g></svg><rect width="395.52" height="188.0553155819895" fill="none" stroke="none" visibility="hidden"></rect></g></svg></g></svg>